<svg width="616" height="142" viewBox="0 0 616 142" fill="none" xmlns="http://www.w3.org/2000/svg">
<path fill-rule="evenodd" clip-rule="evenodd" d="M368.496 94.2061C370.546 87.9161 372.195 81.9584 373.472 76.3263C378.259 77.1982 383.366 77.8769 388.805 78.3404V141.708H406.594V61.732H406.551V61.3535C394.838 61.3535 384.853 60.4242 376.38 58.8618C378.375 38.8818 374.771 24.1412 367.521 14.1835C355.98 -1.66782 335.861 -3.50922 324.068 7.13431C312.019 18.0082 312.491 37.8519 325.606 52.8498C332.385 60.6018 342.475 67.2834 356.311 71.9607C355.194 76.9448 353.718 82.3521 351.823 88.2101L351.817 88.208L340.821 120.508L320.911 61.708H320.91H302.121H302.1L282.239 120.458L262.35 61.708H243.562L270.639 141.708H293.849L311.521 89.466L329.211 141.708H352.451L367.188 98.0934L367.191 98.0946C367.577 96.9761 367.95 95.8677 368.311 94.7693L368.501 94.208L368.496 94.2061ZM353.204 24.6077C356.925 29.7196 360.046 39.0232 359.019 54.1162C349.321 50.4043 342.898 45.7206 338.938 41.1918C330.301 31.3144 333.023 22.9079 335.933 20.2818C339.098 17.4254 347.18 16.334 353.204 24.6077ZM409.09 36.926C409.09 43.246 404.192 48.144 397.714 48.144C391.394 48.144 386.496 43.246 386.496 36.926C386.496 30.448 391.394 25.708 397.714 25.708C404.192 25.708 409.09 30.448 409.09 36.926ZM504.684 117.226C504.684 121.808 507.37 124.652 511.952 124.652H513.532V141.716H508.476C494.414 141.716 486.988 134.606 486.988 121.176V97.44C486.988 85.116 479.088 76.9 466.922 76.9C454.124 76.9 445.592 85.274 445.592 97.756V141.708H427.808V61.732H445.592V72.95C451.912 64.418 461.234 59.836 472.768 59.836C491.886 59.836 504.684 72.476 504.684 91.594V117.226ZM614.634 124.644C609.894 124.644 607.208 121.8 607.208 117.218L607.083 28.408H589.301V73.586C582.823 64.738 572.955 59.208 561.105 59.208C538.353 59.208 521.447 75.506 521.447 99.522C521.447 123.538 538.353 141.708 561.105 141.708C573.429 141.708 583.669 138.204 590.147 128.724C592.359 137.572 599.624 141.708 611 141.708H616V124.644H614.634ZM564.581 124.644C550.203 124.644 539.617 113.742 539.617 99.522C539.617 85.302 550.203 76.272 564.581 76.272C578.801 76.272 589.301 85.302 589.301 99.522C589.301 113.742 578.801 124.644 564.581 124.644Z" fill="#0077CC"/>
<path d="M51.3912 77.848V61.708H31.7992V39.928H14V55.412C14 59.52 12.324 61.708 8.216 61.708H0.105469V77.708H14V116.77C14 132.728 23.2672 141.716 40.8052 141.716H51.3912V125.442H43.3332C35.9072 125.442 31.7992 121.176 31.7992 114.066V77.848H51.3912Z" fill="#1F2122"/>
<path d="M154.212 124.634C149.472 124.634 146.786 121.79 146.786 117.208V61.708H129V76.086C122.522 67.238 112.748 61.708 100.898 61.708C78.1465 61.708 61.1502 78.006 61.1502 102.022C61.1502 126.038 78.248 141.708 101 141.708C113.324 141.708 123.594 135.6 130.072 126.12C132.284 134.968 139.202 141.698 150.578 141.698H155.634V124.634H154.212ZM104.476 124.644C90.098 124.644 79.3202 116.242 79.3202 102.022C79.3202 87.802 89.9965 78.772 104.374 78.772C118.594 78.772 129 87.988 129 102.208C129 116.428 118.696 124.644 104.476 124.644Z" fill="#1F2122"/>
<path d="M177.966 48.144C184.444 48.144 189.342 43.246 189.342 36.926C189.342 30.448 184.444 25.708 177.966 25.708C171.646 25.708 166.748 30.448 166.748 36.926C166.748 43.246 171.646 48.144 177.966 48.144ZM169 141.708H186.814V61.732H169V141.708Z" fill="#1F2122"/>
<path d="M232.796 141.708H240.222V125.434H235.324C229.478 125.434 225.895 122.116 225.895 116.27V28.4055H208.105V119.272C208.105 133.808 216.68 141.708 232.796 141.708Z" fill="#1F2122"/>
</svg>
